<svg width="639" height="129" viewBox="0 0 639 129" fill="none" xmlns="http://www.w3.org/2000/svg">
<path d="M77.2531 82.0012C76.3867 70.5107 72.6982 63.0625 70.902 58.8409C69.107 54.6204 66.3466 50.6693 66.3448 50.6758C66.3395 50.6937 63.8596 64.1219 59.4008 73.8374C58.6566 75.4599 57.6681 77.4858 56.6706 79.1173C53.5924 84.5783 49.1259 89.8028 46.4639 95.0981C43.8245 100.346 43.3347 105.544 43.5802 111.453C43.8274 117.395 45.1937 123.223 46.5054 129C51.4499 127.928 55.7533 126.094 59.4761 123.749C69.2731 117.577 75.193 107.706 76.8753 97.0716C76.8753 97.0716 76.9572 96.6396 76.9939 96.1129C77.7524 87.8936 77.5015 85.3005 77.2531 82.0012Z" fill="#40B3D8"/>
<path d="M77.2531 82.0012C76.3867 70.5107 72.6982 63.0625 70.902 58.8409C69.107 54.6204 66.3466 50.6693 66.3448 50.6758L66.3442 50.6788C66.3442 50.677 66.3448 50.6752 66.3448 50.6752L65.686 49.6909C51.2382 29.312 23.5302 19.1371 0.119787 28.5678C-1.00751 42.8522 5.5831 67.4295 29.6275 74.2849C39.3479 77.2898 47.1316 76.5104 56.6712 79.1167C56.6706 79.1167 56.6706 79.1173 56.6706 79.1173C56.6706 79.1173 66.3674 82.5131 72.0086 87.6053C74.546 89.8951 77.087 92.909 76.9595 96.4937C77.7631 87.9628 77.5057 85.3529 77.2531 82.0012Z" fill="#83C933"/>
<path d="M638.979 97.9303C638.913 97.515 638.71 97.177 638.472 96.841C638.457 96.8195 638.443 96.796 638.429 96.7738C638.418 96.761 638.408 96.7462 638.397 96.7328C637.863 96.0339 637.242 95.3989 636.679 94.7202C636.144 94.0831 635.61 93.4427 635.076 92.8037C634.434 92.0363 633.792 91.2695 633.15 90.5008C632.433 89.6426 631.715 88.7818 630.995 87.923C630.231 87.0091 629.468 86.0979 628.705 85.1833C627.927 84.254 627.149 83.3239 626.374 82.3952L624.095 79.6697C623.383 78.8176 622.672 77.9675 621.963 77.1174C621.331 76.3641 620.702 75.6095 620.07 74.8562C619.551 74.236 619.034 73.615 618.516 72.9934C618.139 72.5452 617.763 72.0977 617.389 71.6481L616.786 70.9251C616.782 70.9204 616.707 70.835 616.707 70.835C616.719 70.8216 616.731 70.8088 616.744 70.796L616.843 70.6878C616.898 70.6301 616.952 70.5696 617.007 70.5098C617.081 70.4285 617.156 70.3478 617.23 70.2665C617.324 70.1657 617.419 70.0643 617.513 69.9628C617.624 69.8425 617.734 69.7215 617.845 69.6012C617.973 69.4628 618.102 69.3244 618.23 69.1853C618.373 69.0287 618.518 68.8735 618.66 68.7182L619.135 68.2022C619.308 68.0167 619.481 67.8299 619.652 67.6431C619.836 67.4435 620.022 67.2446 620.204 67.045C620.4 66.832 620.595 66.6196 620.792 66.408L621.409 65.7387C621.626 65.5048 621.841 65.2716 622.055 65.0391C622.279 64.7965 622.502 64.5553 622.726 64.3134C622.955 64.0641 623.186 63.8141 623.417 63.5641C623.653 63.3081 623.89 63.0541 624.125 62.796C624.366 62.5339 624.607 62.2739 624.848 62.0125C625.094 61.747 625.338 61.4809 625.583 61.2162C625.833 60.9474 626.08 60.6786 626.328 60.4118C626.576 60.1403 626.825 59.8702 627.074 59.5987C627.325 59.3292 627.575 59.0584 627.826 58.7869C628.073 58.5175 628.323 58.2466 628.572 57.9758C628.82 57.7084 629.07 57.4403 629.317 57.1708C629.563 56.906 629.807 56.6392 630.053 56.3738C630.294 56.1117 630.536 55.8517 630.777 55.5889C631.013 55.3322 631.249 55.0769 631.485 54.8188C631.716 54.5689 631.949 54.3182 632.178 54.0682L632.849 53.3411C633.065 53.1073 633.282 52.8748 633.496 52.6396C633.703 52.4171 633.909 52.192 634.116 51.9683L634.707 51.3312C634.89 51.1303 635.075 50.9287 635.262 50.7284C635.435 50.5423 635.606 50.3562 635.779 50.1667C635.938 49.9946 636.098 49.8233 636.257 49.6499C636.402 49.4933 636.546 49.3374 636.691 49.1788C636.82 49.0391 636.949 48.8993 637.079 48.7595C637.19 48.6372 637.302 48.5162 637.417 48.3939C637.745 48.0351 638.113 47.7045 638.376 47.2872C638.673 46.8161 638.776 46.2221 638.476 45.7235C638.277 45.3922 637.946 45.1724 637.579 45.073C637.389 45.0233 637.192 45.0017 636.997 45.0017H630.784C629.958 45.0017 629.542 45.0017 628.716 45.837L609.255 67.9186V27.5025C609.255 26.2539 608.425 25.418 607.184 25.418H602.628C601.386 25.418 600.558 26.2533 600.558 27.5025V97.5029C600.558 98.7514 601.386 99.584 602.628 99.584H607.184C608.425 99.584 609.255 98.7514 609.255 97.5029V74.1694L628.716 98.3341C629.543 99.1694 629.958 99.584 630.784 99.584H637.234C637.747 99.584 638.282 99.3939 638.66 99.0371C638.962 98.7494 639.044 98.3321 638.979 97.9303ZM595.178 50.4173V45.8357C595.178 44.5838 594.348 44.1665 593.108 44.1665C584.824 44.1665 578.527 44.3694 573.144 46.8699C571.793 47.5177 571.16 48.3335 571.16 49.1681V96.6663C571.16 97.9162 571.99 98.7494 572.816 98.7494H577.785C579.029 98.7494 579.442 97.9162 579.442 96.6663V52.9184C583.168 52.0832 586.481 52.0832 593.108 52.0832C595.178 52.0832 595.178 51.6672 595.178 50.4173ZM555.841 75.834C555.841 85.8331 551.699 92.0846 542.589 92.0846C533.48 92.0846 529.34 85.8325 529.34 75.834V68.3332C529.34 58.3353 533.48 52.0832 542.589 52.0832C551.699 52.0832 555.841 58.3347 555.841 68.3332V75.834ZM564.537 75.834V68.3332C564.537 53.7504 557.082 44.5838 542.589 44.5838C528.096 44.5838 520.645 54.1677 520.645 68.3332V75.834C520.645 90.4175 528.097 99.5827 542.589 99.5827C557.082 100 564.537 90.4181 564.537 75.834ZM514.433 77.9185V47.0842C514.433 45.8357 513.606 44.9997 512.363 44.9997H508.083C506.842 44.9997 506.013 45.835 506.013 47.0842V77.9185C506.013 88.7502 501.597 92.4993 493.731 92.4993C491.244 92.4993 488.485 92.0846 485.587 91.2507V47.0842C485.587 45.8357 484.76 44.9997 483.516 44.9997H479.098C477.856 44.9997 477.03 45.835 477.03 47.0842V91.2507C474.13 92.0853 471.37 92.4993 468.887 92.4993C460.605 92.4993 456.602 88.7502 456.602 77.9185V47.0842C456.602 45.8357 455.775 44.9997 454.534 44.9997H450.253C449.01 44.9997 448.184 45.835 448.184 47.0842V77.9185C448.184 95.417 457.706 100 468.058 100C473.029 100 477.168 99.1681 480.894 97.5016C485.037 99.1688 488.763 100 493.731 100C504.91 100 514.433 95.417 514.433 77.9185ZM434.518 68.3332H408.43V67.4999C408.43 57.0834 412.985 52.0832 421.682 52.0832C430.378 52.0832 434.517 56.2508 434.517 67.4999V68.3332H434.518ZM443.212 72.9162V67.4999C443.212 53.7504 435.76 44.5838 421.682 44.5838C407.602 44.5838 399.736 53.3331 399.736 67.4999V76.2499C399.736 94.5831 410.502 99.9993 422.094 99.9993C428.722 99.9993 434.104 99.582 439.485 98.3321C441.144 97.9162 441.556 97.5009 441.556 96.249V92.9159C441.556 92.0846 440.729 91.666 439.9 91.666H439.485C434.931 92.4986 427.892 92.9159 422.094 92.9159C412.985 92.9159 408.43 88.7496 408.43 77.0832V75H441.144C442.386 75.0007 443.212 74.1681 443.212 72.9162ZM393.525 97.0843V63.093C393.525 58.1553 393.301 52.0133 389.286 48.5236C388.299 47.6655 387.161 46.9922 385.964 46.4687C384.499 45.8276 382.946 45.3996 381.38 45.0938C380.193 44.8599 378.994 44.6993 377.789 44.5838H375.719C369.924 44.5838 365.781 45.417 362.885 47.9168C359.984 44.9997 355.845 44.5838 350.048 44.5838H347.977C336.384 44.5838 330.587 51.6672 330.587 61.6684V97.0843C330.587 98.3328 331.413 99.1687 332.242 99.1687H337.211C338.454 99.1687 338.868 98.3335 338.868 97.0843V61.6684C338.868 53.3331 342.594 52.0832 347.563 52.0832H349.633C355.846 52.0832 357.916 53.3331 357.916 58.7506V97.0843C357.916 98.3328 358.743 99.1687 359.573 99.1687H364.541C365.782 99.1687 366.198 98.3335 366.198 97.0843V58.7506C366.198 53.3331 368.268 52.0832 374.478 52.0832H376.548C381.932 52.0832 385.243 53.3331 385.243 61.6684V97.0843C385.243 98.3328 386.073 99.1687 386.9 99.1687H390.212C393.112 99.1681 393.525 98.3328 393.525 97.0843ZM315.679 91.6667C312.78 92.0846 308.227 92.4993 304.086 92.4993C294.561 92.4993 291.249 85.8331 291.249 75.4166V68.7505C291.249 58.3353 294.149 51.6672 304.086 51.6672C308.227 51.6672 312.78 52.0838 315.679 52.5005V91.6667ZM324.374 95.4171V49.1688C324.374 47.9168 323.962 47.5015 322.305 47.0842C316.923 45.8357 310.295 44.9997 304.086 44.9997C289.592 44.9997 282.554 54.585 282.554 69.1665V75.834C282.554 90.4175 289.178 100 304.086 100C309.884 100 316.923 99.1681 322.305 97.9169C323.962 97.0843 324.374 96.6669 324.374 95.4171ZM281.726 50.4173V45.8357C281.726 44.5838 280.897 44.1665 279.656 44.1665C271.372 44.1665 264.749 44.5838 259.365 47.0842C258.125 47.5015 257.709 48.3341 257.709 49.1688V96.6669C257.709 97.9168 258.538 98.7501 259.365 98.7501H264.333C265.577 98.7501 265.99 97.9168 265.99 96.6669V52.9191C269.717 52.0838 273.029 52.0838 279.656 52.0838C281.726 52.0832 281.726 51.6672 281.726 50.4173ZM250.67 30.4169V27.0838C250.67 26.2519 250.315 25.7634 248.6 25.4166C246.943 25 243.217 25 239.905 25C230.795 25 225 28.3331 225 38.7509V97.5009C225 98.65 225.926 99.582 227.068 99.582H231.625C232.769 99.582 233.695 98.65 233.695 97.5009V52.0832H249.014C250.256 52.0832 250.67 51.2506 250.67 50.4173V47.0842C250.67 45.8357 249.844 45.417 249.014 45.417H233.28V38.7509C233.28 32.9174 234.521 32.0834 239.905 32.0834H247.71C248.393 32.0834 249.187 32.0518 249.734 31.8294C250.369 31.572 250.67 31.2025 250.67 30.4169Z" fill="#40B3D8"/>
<path d="M206.99 24.333C210.299 24.333 212.872 26.9196 212.872 30.2451C212.872 33.5694 210.299 36.1566 206.99 36.1566C203.68 36.1566 201.106 33.5694 201.106 30.2451C201.106 27.2885 203.679 24.333 206.99 24.333ZM185.664 24.333C188.971 24.333 191.547 26.9196 191.547 30.2451C191.547 33.5694 188.972 36.1566 185.664 36.1566C182.355 36.1566 179.779 33.5694 179.779 30.2451C179.779 27.2885 182.355 24.333 185.664 24.333ZM191.547 96.7475V41.6981C191.547 40.591 190.81 39.8509 189.707 39.8509H181.618C180.516 39.8509 179.78 40.591 179.78 41.6981V96.7475C179.78 97.8558 180.516 98.5947 181.618 98.5947H189.707C190.81 98.2246 191.547 97.4875 191.547 96.7475ZM170.587 98.2246V40.2203C166.176 40.2203 159.188 43.1758 159.188 49.4567V88.9883C156.616 89.3583 152.938 89.7289 150.733 89.7289C143.378 89.7289 141.541 84.5551 141.541 77.5353V49.0861C141.173 42.0669 133.451 40.2197 130.143 40.2197V77.1665C130.143 90.4654 136.761 98.9635 150.733 98.9635C152.938 98.9635 157.352 98.2234 159.188 97.8546L159.286 98.8127C159.795 110.321 147.055 105.614 139.702 104.874C134.186 104.874 130.51 109.308 129.406 114.481C132.715 115.589 143.011 116.698 150.365 117.436C163.603 117.806 170.587 110.418 170.587 98.2246ZM212.505 96.7475V41.6981C212.505 40.591 211.77 39.8509 210.667 39.8509H202.578C201.475 39.8509 200.738 40.591 200.738 41.6981V96.7475C200.738 97.8558 201.475 98.5947 202.578 98.5947H210.667C211.77 98.2246 212.505 97.4875 212.505 96.7475Z" fill="#40B3D8"/>
<path fill-rule="evenodd" clip-rule="evenodd" d="M66.7534 38.717C63.3372 28.6738 64.7847 21.9442 71.0349 12.5791C74.0159 8.1108 79.1626 2.92804 83.6735 0C101.873 11.4595 108.603 32.8043 101.909 52.6279C97.0385 67.0518 92.4683 73.0997 80.9125 87.9401C82.2592 72.0462 76.6921 61.0271 71.2264 48.7834C69.8353 45.6683 67.9116 42.1223 66.7534 38.717Z" fill="#F18A2A"/>
<path d="M76.9596 96.4936C77.0871 92.909 74.546 89.8951 72.0086 87.6053C66.3674 82.5131 56.6712 79.1173 56.6712 79.1173C57.6687 77.4858 58.6572 75.4599 59.4014 73.8374C63.8602 64.1219 66.3401 50.6937 66.3454 50.6758C66.3472 50.6699 69.1071 54.6204 70.9027 58.8409C72.6989 63.0625 76.3867 70.5101 77.2537 82.0012C77.5057 85.3529 77.7631 87.9628 76.9596 96.4936Z" fill="#7FB93C"/>
</svg>
